<svg className="svg" id="svg" xmlns="http://www.w3.org/2000/svg" xmlns:xlink="http://www.w3.org/1999/xlink" width="150" height="70" viewBox="0, 0, 400,156.85039370078738"><g id="svgg"><path id="path0" className="logo" d="M188.854 1.724 C 185.637 2.871,180.472 8.110,180.472 10.228 C 180.472 10.463,180.360 10.703,180.223 10.761 C 180.085 10.819,179.761 11.433,179.502 12.126 C 178.927 13.662,177.939 14.196,175.282 14.410 L 173.337 14.566 172.911 13.537 C 172.392 12.285,172.395 11.022,172.922 9.085 C 173.620 6.517,171.483 4.117,168.926 4.597 C 167.053 4.949,161.890 10.394,161.890 12.017 C 161.890 12.352,160.820 15.783,159.985 18.127 C 159.840 18.534,159.246 18.925,158.381 19.183 C 157.626 19.409,156.663 19.729,156.242 19.894 C 154.510 20.576,152.952 18.136,153.270 15.241 C 153.783 10.579,149.271 9.146,146.309 13.030 C 144.032 16.015,143.185 18.875,142.574 25.637 C 142.544 25.966,142.242 26.391,141.902 26.582 C 141.562 26.773,140.750 27.248,140.097 27.638 C 137.613 29.121,135.129 26.991,135.120 23.370 C 135.109 18.780,129.970 18.999,127.723 23.685 L 126.469 26.299 126.478 30.394 C 126.482 32.646,126.584 34.859,126.703 35.313 C 126.925 36.156,126.924 36.158,124.500 38.466 C 122.794 40.090,119.963 38.091,118.933 34.535 C 117.912 31.009,113.709 31.069,112.196 34.631 C 111.254 36.849,111.296 42.930,112.273 45.669 C 113.545 49.237,113.554 49.324,112.678 49.898 C 112.255 50.175,111.739 50.773,111.533 51.227 C 110.694 53.068,106.754 51.375,105.457 48.616 C 104.161 45.857,101.770 45.242,99.841 47.172 L 98.583 48.430 98.588 51.223 C 98.594 54.919,99.115 56.960,100.915 60.342 C 104.101 66.327,99.562 69.338,94.908 64.328 C 89.910 58.947,86.152 64.560,89.687 72.126 C 90.643 74.173,92.839 77.348,93.989 78.344 C 94.926 79.157,94.916 79.040,94.227 81.102 L 93.701 82.677 91.985 82.775 C 89.640 82.908,89.218 82.758,87.293 81.115 C 85.349 79.455,84.066 79.262,82.289 80.360 L 81.197 81.035 81.307 83.461 C 81.478 87.228,85.187 92.753,89.183 95.192 C 90.310 95.880,90.514 98.721,89.503 99.636 C 88.475 100.567,85.988 100.322,83.600 99.055 C 78.904 96.564,75.429 99.705,78.219 103.920 C 80.452 107.294,82.744 107.087,43.156 107.087 L 8.475 107.087 7.702 107.860 C 5.960 109.602,6.726 116.328,8.756 117.118 C 9.725 117.495,389.447 118.662,391.892 118.296 C 393.856 118.001,394.331 116.987,394.331 113.081 C 394.331 107.575,399.040 108.156,352.372 107.912 C 310.377 107.692,311.909 107.743,311.611 106.556 C 310.972 104.012,314.608 102.804,318.063 104.413 C 322.241 106.358,325.218 103.804,323.266 99.947 C 321.979 97.404,316.042 92.598,314.186 92.598 C 313.915 92.598,313.446 92.460,313.145 92.291 C 312.845 92.121,311.998 91.833,311.265 91.650 C 309.738 91.269,309.275 90.617,309.192 88.735 C 309.098 86.612,311.167 86.037,316.288 86.761 C 319.473 87.211,321.337 84.405,319.658 81.688 C 317.699 78.519,310.390 74.977,305.765 74.956 C 303.363 74.945,301.595 70.707,303.813 70.279 C 304.141 70.215,304.503 70.015,304.618 69.833 C 304.732 69.651,306.339 69.420,308.188 69.318 C 312.179 69.099,313.077 68.497,313.064 66.045 C 313.055 64.283,309.790 61.102,307.990 61.102 C 307.836 61.102,307.109 60.833,306.375 60.504 C 304.229 59.543,302.300 59.213,298.826 59.213 L 295.568 59.213 294.556 57.896 C 293.440 56.444,293.355 56.100,293.937 55.385 C 294.892 54.211,296.330 53.543,297.902 53.543 C 302.257 53.543,304.258 50.203,301.469 47.589 C 298.611 44.912,290.276 43.630,285.827 45.185 L 284.567 45.625 282.913 44.004 C 282.004 43.113,281.260 42.262,281.260 42.113 C 281.260 41.314,283.235 39.993,285.385 39.355 C 288.948 38.298,290.286 35.869,288.531 33.646 C 286.282 30.798,275.800 30.631,270.913 33.366 C 270.379 33.665,268.764 32.949,267.480 31.846 C 266.590 31.082,266.566 29.772,267.428 29.052 C 267.789 28.751,268.378 28.256,268.736 27.953 C 269.095 27.650,269.586 27.402,269.828 27.402 C 272.202 27.402,274.002 23.682,272.513 21.850 C 270.875 19.836,266.027 19.359,261.505 20.766 C 260.253 21.155,259.190 21.437,259.142 21.392 C 259.035 21.292,255.392 23.276,254.976 23.660 C 254.387 24.205,250.628 22.935,250.047 21.995 C 249.446 21.023,251.875 17.638,253.173 17.638 C 253.665 17.638,254.783 15.930,254.999 14.846 C 256.154 9.073,243.993 10.175,237.440 16.437 C 236.701 17.143,236.408 17.239,235.678 17.012 C 235.197 16.863,234.179 16.550,233.417 16.318 C 230.838 15.533,230.940 13.799,233.730 10.994 C 235.975 8.737,235.778 6.113,233.273 4.924 C 231.773 4.213,231.073 4.331,226.239 6.112 C 224.741 6.664,221.577 8.614,221.197 9.220 C 221.058 9.441,220.555 9.869,220.079 10.172 C 219.602 10.475,219.213 10.866,219.213 11.041 C 219.213 11.217,218.807 11.757,218.311 12.241 L 217.409 13.123 214.981 12.782 C 211.819 12.338,210.930 10.481,212.872 8.380 C 215.570 5.461,214.782 1.267,211.534 1.261 C 210.542 1.259,206.638 2.788,205.915 3.461 C 205.541 3.810,205.085 4.097,204.901 4.099 C 204.512 4.104,200.977 7.432,200.385 8.352 C 200.163 8.695,199.738 9.388,199.440 9.892 C 198.304 11.809,197.987 11.969,195.306 11.969 L 192.818 11.969 192.472 10.977 C 191.978 9.560,192.042 8.803,192.754 7.636 C 195.000 3.951,192.641 0.374,188.854 1.724 M209.263 6.355 C 207.892 9.060,208.731 15.092,210.482 15.125 C 210.693 15.129,212.708 15.406,214.960 15.741 C 219.434 16.405,220.143 16.279,220.782 14.708 C 221.763 12.300,230.236 6.491,230.236 8.226 C 230.236 8.420,229.818 9.055,229.307 9.637 C 228.202 10.895,227.918 12.163,228.084 15.097 C 228.236 17.788,228.686 18.351,231.107 18.878 C 232.100 19.095,233.752 19.542,234.776 19.872 C 237.384 20.712,237.815 20.646,239.227 19.186 C 240.647 17.718,243.464 15.748,244.143 15.748 C 244.393 15.748,244.733 15.624,244.898 15.472 C 245.242 15.153,247.888 14.310,249.320 14.063 C 250.275 13.897,250.260 13.928,248.502 15.724 C 245.514 18.778,245.407 24.882,248.341 24.882 C 248.458 24.882,249.602 25.386,250.884 26.003 C 254.085 27.543,255.004 27.651,256.378 26.650 C 259.350 24.485,262.016 23.527,265.354 23.425 C 267.087 23.372,268.220 23.430,267.874 23.554 C 265.427 24.429,263.328 27.129,262.942 29.897 C 262.614 32.255,262.693 32.409,264.961 33.843 C 266.043 34.528,267.392 35.483,267.959 35.965 C 269.481 37.262,270.186 37.323,272.307 36.347 C 275.690 34.789,276.305 34.643,279.586 34.617 C 282.915 34.590,284.613 34.981,283.122 35.429 C 281.877 35.804,279.370 37.512,279.370 37.986 C 279.370 38.227,279.240 38.425,279.081 38.425 C 278.456 38.425,277.480 40.573,277.480 41.948 C 277.480 43.300,277.583 43.449,280.430 46.241 C 283.769 49.516,283.376 49.349,285.669 48.469 C 288.023 47.565,293.876 47.510,296.410 48.368 L 298.110 48.943 296.063 49.422 C 293.768 49.959,293.937 49.867,291.869 51.693 C 289.288 53.971,288.898 55.675,290.472 57.791 C 291.035 58.547,292.044 59.967,292.714 60.947 L 293.932 62.728 297.596 62.520 C 301.618 62.292,304.277 62.717,307.044 64.031 L 308.504 64.724 306.614 64.916 C 302.839 65.299,298.916 67.999,298.853 70.257 C 298.833 70.957,299.364 72.451,300.356 74.488 L 301.890 77.638 304.781 77.841 C 308.760 78.121,313.012 79.660,315.433 81.697 L 316.378 82.492 315.118 82.154 C 312.270 81.391,307.960 82.654,305.855 84.868 L 304.780 85.998 305.349 88.432 C 305.663 89.771,306.039 91.375,306.186 91.997 C 306.559 93.572,307.215 94.015,309.841 94.467 C 311.097 94.683,312.194 94.973,312.279 95.112 C 312.365 95.250,312.816 95.459,313.281 95.576 C 314.423 95.862,317.194 97.732,318.557 99.135 C 319.642 100.252,319.877 100.970,318.888 100.150 C 317.469 98.972,310.532 99.894,309.291 101.426 C 309.205 101.533,308.886 101.712,308.583 101.824 C 307.586 102.192,307.972 109.921,309.020 110.585 C 309.256 110.734,327.768 110.859,350.157 110.861 L 390.866 110.866 390.866 112.598 L 390.866 114.331 359.134 114.323 C 341.681 114.319,261.283 114.110,180.472 113.858 C 99.661 113.607,28.335 113.397,21.969 113.393 L 10.394 113.386 10.394 111.635 L 10.394 109.884 48.469 109.943 C 69.411 109.975,86.702 109.904,86.894 109.785 C 87.761 109.250,87.265 107.762,85.906 106.817 C 84.309 105.707,82.946 104.261,81.796 102.453 L 80.951 101.126 82.027 101.856 C 84.805 103.741,91.227 103.607,92.868 101.630 C 93.077 101.377,93.438 99.561,93.670 97.593 C 94.152 93.500,94.025 93.048,92.146 92.157 C 90.543 91.396,87.487 88.776,86.935 87.690 C 86.678 87.185,86.161 86.276,85.785 85.669 C 84.407 83.449,84.456 82.884,85.923 84.046 C 90.358 87.559,96.050 86.932,97.297 82.793 C 97.525 82.036,97.994 80.675,98.340 79.767 C 99.133 77.684,98.922 76.844,97.342 75.798 C 94.955 74.219,92.486 70.225,92.084 67.296 L 91.889 65.873 93.499 67.361 C 96.640 70.263,103.622 71.051,103.622 68.502 C 103.622 68.295,104.047 67.539,104.567 66.822 C 105.087 66.104,105.512 65.303,105.512 65.042 C 105.512 64.781,105.627 64.567,105.768 64.567 C 107.361 64.567,106.682 60.798,104.890 59.690 C 103.728 58.972,101.927 53.394,102.106 51.072 L 102.205 49.799 103.623 51.583 C 106.026 54.604,111.134 56.503,112.596 54.918 C 118.031 49.027,118.215 48.696,117.036 46.915 C 115.234 44.192,114.640 41.168,115.161 37.367 C 115.402 35.605,115.644 35.532,116.195 37.056 C 117.114 39.596,120.232 41.911,123.340 42.360 C 124.616 42.544,125.081 42.244,130.026 38.052 C 131.129 37.117,131.300 36.106,130.593 34.709 C 129.564 32.676,129.797 26.672,130.976 24.809 L 131.603 23.819 131.822 25.059 C 132.434 28.524,137.805 33.019,139.606 31.573 C 139.958 31.289,141.658 30.334,144.862 28.619 C 146.596 27.691,146.614 27.637,146.622 23.370 C 146.630 19.473,146.657 19.317,147.672 17.323 C 149.247 14.227,149.606 13.982,149.606 16.006 C 149.606 18.664,151.142 21.147,153.812 22.806 C 154.902 23.483,156.839 23.329,158.635 22.422 C 159.299 22.087,160.651 21.579,161.640 21.295 C 163.569 20.740,164.088 19.933,164.093 17.481 C 164.095 16.019,165.615 11.805,166.473 10.878 C 166.897 10.421,167.244 9.958,167.244 9.851 C 167.244 9.546,168.256 8.504,168.553 8.504 C 168.699 8.504,168.820 9.390,168.821 10.472 C 168.823 13.433,169.230 14.451,171.179 16.376 L 172.920 18.095 175.515 17.534 C 176.942 17.225,178.985 16.812,180.054 16.616 L 181.998 16.258 182.532 14.350 C 183.328 11.504,184.624 9.175,186.451 7.305 C 187.896 5.826,190.338 4.251,189.362 5.427 C 187.799 7.310,188.415 11.937,190.496 13.953 L 191.654 15.074 196.168 14.891 L 200.682 14.708 201.444 13.502 C 201.862 12.839,202.205 12.115,202.205 11.895 C 202.205 11.385,205.047 7.920,206.148 7.087 C 206.800 6.593,209.578 4.914,210.005 4.756 C 210.052 4.738,209.718 5.458,209.263 6.355 M191.339 18.480 C 182.801 19.427,174.455 20.983,169.448 22.562 C 168.148 22.972,166.852 23.307,166.567 23.307 C 166.283 23.307,165.051 23.732,163.830 24.252 C 162.609 24.772,161.388 25.197,161.118 25.197 C 160.848 25.197,159.892 25.551,158.995 25.984 C 158.097 26.417,157.189 26.772,156.978 26.772 C 156.767 26.772,155.907 27.108,155.068 27.520 C 152.065 28.992,149.368 30.236,149.179 30.236 C 149.073 30.236,148.295 30.661,147.450 31.181 C 146.606 31.701,145.743 32.126,145.534 32.126 C 145.324 32.126,144.560 32.532,143.836 33.028 C 143.112 33.524,142.201 34.029,141.811 34.151 C 141.421 34.273,141.102 34.482,141.102 34.615 C 141.102 34.747,140.306 35.269,139.333 35.774 C 138.360 36.280,137.495 36.870,137.410 37.087 C 137.325 37.303,137.093 37.481,136.895 37.481 C 136.697 37.481,136.039 37.906,135.433 38.425 C 134.827 38.944,134.165 39.369,133.963 39.369 C 133.761 39.370,133.549 39.476,133.491 39.606 C 133.433 39.736,132.394 40.637,131.181 41.608 C 129.969 42.579,128.494 43.784,127.904 44.285 C 125.653 46.199,120.314 51.601,118.286 54.016 C 117.123 55.402,115.827 56.902,115.408 57.349 C 114.989 57.797,114.646 58.306,114.646 58.481 C 114.646 58.657,114.363 59.055,114.019 59.368 C 113.674 59.680,113.030 60.552,112.588 61.306 C 112.146 62.060,111.663 62.677,111.514 62.677 C 111.365 62.677,111.083 63.067,110.887 63.543 C 110.511 64.458,108.614 67.593,108.021 68.279 C 107.561 68.811,103.759 76.468,103.454 77.478 C 103.323 77.909,102.812 79.137,102.317 80.206 C 101.822 81.275,101.417 82.371,101.417 82.643 C 101.417 83.122,100.719 85.172,100.120 86.457 C 99.958 86.803,99.698 87.795,99.543 88.661 C 99.388 89.528,98.896 91.583,98.451 93.228 C 97.067 98.340,96.453 109.052,97.500 109.817 C 98.509 110.555,182.556 110.425,182.945 109.685 C 183.104 109.382,183.418 108.283,183.642 107.244 C 183.866 106.205,184.449 104.762,184.938 104.038 C 185.427 103.314,185.829 102.605,185.832 102.463 C 185.838 102.209,188.227 99.676,189.660 98.405 C 192.738 95.675,199.722 94.156,204.094 95.265 C 207.322 96.084,208.102 96.382,210.095 97.562 C 214.012 99.882,216.360 103.115,217.455 107.694 C 217.721 108.807,218.091 109.870,218.277 110.056 C 218.697 110.477,302.947 110.850,303.543 110.434 C 304.187 109.984,304.047 102.222,303.324 98.268 C 302.511 93.827,301.514 89.289,300.970 87.559 C 299.488 82.842,299.093 81.701,298.852 81.433 C 298.704 81.269,298.583 80.932,298.583 80.685 C 298.583 79.878,295.541 73.262,293.126 68.819 C 289.046 61.310,281.429 51.891,274.757 46.105 C 273.050 44.624,271.299 43.094,270.866 42.703 C 269.018 41.036,261.283 35.805,256.693 33.117 C 252.600 30.720,244.312 26.772,243.374 26.772 C 243.155 26.772,242.695 26.578,242.354 26.341 C 242.012 26.105,240.740 25.593,239.528 25.204 C 238.315 24.815,236.461 24.180,235.408 23.792 C 233.460 23.075,225.822 21.098,222.677 20.496 C 215.894 19.199,213.117 18.825,208.375 18.567 C 203.350 18.293,193.477 18.243,191.339 18.480 M213.437 23.306 C 219.178 24.104,224.771 25.073,226.142 25.508 C 226.748 25.700,228.378 26.120,229.764 26.441 C 232.348 27.040,239.062 29.249,240.835 30.084 C 241.381 30.341,242.026 30.551,242.268 30.551 C 242.510 30.551,242.843 30.672,243.008 30.819 C 243.172 30.967,244.299 31.474,245.512 31.948 C 246.724 32.421,248.709 33.347,249.921 34.006 C 251.134 34.665,253.118 35.731,254.331 36.374 C 255.543 37.017,256.748 37.722,257.008 37.941 C 257.268 38.159,258.189 38.738,259.055 39.228 C 267.561 44.035,280.241 56.272,286.816 66.019 C 290.961 72.165,295.608 81.845,297.004 87.244 C 297.206 88.024,297.585 89.299,297.847 90.079 C 298.108 90.858,298.441 92.134,298.585 92.913 C 298.729 93.693,299.150 95.890,299.520 97.795 C 300.358 102.108,300.529 106.670,299.878 107.321 C 299.487 107.712,294.086 107.760,260.627 107.667 C 219.430 107.552,220.787 107.604,220.787 106.139 C 220.787 103.607,215.544 97.057,211.883 95.016 C 205.909 91.684,197.499 90.901,192.685 93.227 C 191.966 93.574,191.182 93.858,190.942 93.858 C 190.703 93.858,189.889 94.283,189.134 94.803 C 188.379 95.323,187.613 95.748,187.433 95.748 C 187.253 95.748,186.800 96.161,186.426 96.667 C 186.053 97.172,185.482 97.654,185.159 97.739 C 184.835 97.824,184.478 98.133,184.366 98.425 C 184.253 98.718,183.757 99.401,183.262 99.943 C 182.767 100.485,182.362 101.081,182.362 101.269 C 182.362 101.456,182.023 102.070,181.608 102.632 C 181.193 103.194,180.696 104.282,180.503 105.050 C 179.829 107.725,183.482 107.520,139.947 107.325 C 108.065 107.183,101.275 107.078,100.926 106.726 C 99.840 105.627,101.734 93.900,104.125 86.929 C 104.570 85.630,105.043 84.142,105.175 83.622 C 105.307 83.102,105.791 81.858,106.251 80.857 C 106.711 79.856,107.087 78.879,107.087 78.687 C 107.087 78.495,107.512 77.646,108.031 76.802 C 108.551 75.957,108.976 75.084,108.976 74.861 C 108.976 74.639,109.106 74.322,109.264 74.157 C 109.422 73.993,109.999 73.008,110.546 71.969 C 111.094 70.929,111.992 69.345,112.543 68.447 C 113.453 66.964,114.058 66.071,116.276 62.942 C 120.416 57.100,134.545 43.150,136.321 43.150 C 136.483 43.150,136.804 42.923,137.034 42.646 C 137.263 42.369,138.521 41.456,139.828 40.616 C 141.135 39.776,142.581 38.797,143.042 38.442 C 143.502 38.086,144.093 37.795,144.354 37.795 C 144.616 37.795,144.877 37.689,144.934 37.559 C 145.292 36.754,157.582 30.558,158.841 30.548 C 159.045 30.547,159.921 30.197,160.787 29.771 C 161.654 29.345,162.598 28.992,162.886 28.986 C 163.175 28.981,164.521 28.571,165.879 28.075 C 168.600 27.080,172.998 25.825,174.959 25.484 C 175.653 25.363,177.547 24.968,179.168 24.605 C 180.789 24.243,182.915 23.872,183.893 23.781 C 184.870 23.691,187.299 23.405,189.291 23.147 C 196.320 22.235,206.201 22.301,213.437 23.306 M238.898 37.163 C 238.205 37.314,236.948 37.588,236.104 37.771 C 235.261 37.955,234.110 38.390,233.547 38.738 C 232.985 39.085,232.365 39.370,232.170 39.370 C 231.008 39.370,225.038 45.138,224.064 47.202 C 223.767 47.832,223.189 48.880,222.779 49.532 C 222.369 50.184,221.954 51.388,221.856 52.209 C 221.758 53.029,221.481 54.225,221.241 54.866 C 217.895 63.803,218.329 73.963,222.256 78.633 C 223.007 79.527,223.622 80.384,223.622 80.539 C 223.622 81.236,228.308 85.199,230.079 85.999 C 235.409 88.407,241.691 88.141,246.614 85.299 C 246.874 85.149,247.625 84.765,248.282 84.447 C 256.605 80.414,258.889 65.512,251.183 65.512 C 248.623 65.512,245.669 68.975,245.669 71.978 C 245.669 72.965,241.809 76.373,240.232 76.779 C 228.226 79.869,225.460 64.971,234.984 48.516 C 236.035 46.700,238.816 45.413,241.772 45.375 C 245.107 45.332,244.897 47.267,241.531 47.605 C 234.479 48.314,232.931 54.203,239.388 55.752 C 241.852 56.343,247.068 55.714,248.078 54.704 C 248.197 54.585,248.565 54.488,248.897 54.488 C 250.941 54.488,254.181 49.328,254.168 46.093 C 254.145 39.999,246.474 35.513,238.898 37.163 M162.305 39.052 C 161.533 39.776,161.076 40.730,160.309 43.224 C 159.346 46.354,158.894 47.726,157.845 50.709 C 156.982 53.161,154.196 58.689,153.660 59.011 C 153.284 59.237,152.924 59.143,152.307 58.657 C 150.270 57.056,147.269 57.350,145.841 59.292 C 144.199 61.525,144.644 63.775,147.098 65.647 C 148.044 66.369,148.661 67.085,148.661 67.463 C 148.661 68.126,146.843 70.866,146.403 70.866 C 146.259 70.866,146.142 71.059,146.142 71.296 C 146.142 71.532,145.810 72.063,145.405 72.477 C 144.999 72.890,144.538 73.465,144.381 73.754 C 144.223 74.044,143.386 75.046,142.520 75.981 C 138.662 80.148,138.665 80.143,138.436 81.812 C 137.987 85.076,140.546 87.735,143.887 87.475 C 144.813 87.404,145.663 87.209,145.777 87.044 C 145.891 86.878,146.906 86.052,148.031 85.208 C 151.456 82.641,158.740 74.781,158.740 73.653 C 158.740 72.498,160.671 71.288,162.131 71.528 C 162.951 71.663,164.769 71.782,166.172 71.792 C 169.161 71.814,169.115 71.779,170.982 75.433 C 172.997 79.378,175.401 83.349,177.695 86.522 C 179.878 89.542,185.610 88.428,186.317 84.846 C 186.610 83.363,185.253 79.899,183.616 77.953 C 183.325 77.606,182.625 76.472,182.060 75.433 C 181.496 74.394,180.483 72.540,179.810 71.313 C 179.136 70.086,178.312 68.288,177.978 67.317 C 177.644 66.346,176.874 64.505,176.266 63.225 C 174.954 60.460,172.811 54.017,172.103 50.709 C 171.825 49.409,171.397 47.425,171.153 46.299 C 170.909 45.173,170.705 43.827,170.700 43.307 C 170.661 39.164,165.160 36.376,162.305 39.052 M193.386 39.337 C 192.260 39.659,190.929 40.085,190.429 40.285 C 189.928 40.484,189.460 40.589,189.388 40.517 C 189.316 40.445,188.412 40.795,187.379 41.295 C 186.347 41.795,185.406 42.205,185.290 42.205 C 184.880 42.205,180.621 44.844,179.736 45.646 C 177.001 48.124,177.663 51.846,181.137 53.524 C 182.427 54.147,185.065 54.095,184.669 53.454 C 184.559 53.276,184.611 53.218,184.784 53.325 C 185.302 53.646,187.316 52.944,188.331 52.091 C 189.422 51.173,190.551 51.299,190.551 52.338 C 190.551 53.586,188.657 54.612,184.613 55.556 C 178.868 56.896,177.202 61.257,180.213 67.074 C 181.903 70.341,183.284 71.442,186.530 72.111 C 188.833 72.586,188.704 72.159,188.360 78.154 L 188.065 83.307 189.355 84.627 C 191.609 86.932,193.556 87.167,195.523 85.369 C 196.986 84.033,197.213 83.204,197.505 78.110 C 197.741 73.990,197.833 73.490,198.444 72.994 C 199.254 72.336,200.639 72.937,201.213 74.196 C 201.544 74.922,205.680 79.382,210.393 84.094 C 215.632 89.332,221.884 90.176,223.814 85.906 C 224.680 83.988,222.582 80.753,218.771 78.131 C 218.033 77.624,216.635 76.242,215.663 75.061 C 214.691 73.880,212.754 71.783,211.358 70.401 C 208.989 68.057,208.101 66.457,209.169 66.457 C 211.398 66.457,217.578 58.861,219.080 54.278 C 221.532 46.792,218.821 42.172,210.394 39.474 C 207.964 38.696,195.966 38.599,193.386 39.337 M245.277 40.448 C 250.691 41.889,252.161 46.254,248.387 49.685 C 247.768 50.248,247.073 50.709,246.843 50.709 C 246.613 50.709,246.291 50.835,246.126 50.990 C 245.580 51.503,242.558 51.962,241.031 51.763 C 238.508 51.434,237.897 50.372,240.374 50.620 C 245.994 51.182,249.651 47.478,247.159 43.747 C 245.834 41.764,241.578 40.833,238.834 41.926 C 236.810 42.732,235.119 43.603,234.379 44.222 C 232.853 45.500,231.181 47.173,231.181 47.423 C 231.181 47.562,230.914 47.969,230.588 48.326 C 229.491 49.528,227.482 54.616,226.663 58.268 C 224.009 70.091,226.814 77.937,234.390 79.884 C 237.607 80.710,242.306 80.176,243.723 78.823 C 243.952 78.604,244.319 78.425,244.539 78.425 C 245.298 78.425,249.134 73.575,249.134 72.615 C 249.134 70.789,251.245 68.126,252.052 68.934 C 252.833 69.715,251.527 75.199,250.156 76.898 C 247.856 79.749,245.210 81.890,243.988 81.890 C 243.700 81.890,243.465 82.006,243.465 82.147 C 243.465 82.683,240.036 83.465,237.683 83.465 C 231.716 83.465,226.604 80.069,223.929 74.331 C 222.626 71.537,222.172 65.519,222.989 61.894 C 223.184 61.031,223.459 59.397,223.602 58.265 C 224.273 52.918,230.066 43.150,232.565 43.150 C 232.843 43.150,233.071 43.022,233.071 42.866 C 233.071 42.473,235.187 41.260,235.871 41.260 C 236.179 41.260,236.535 41.154,236.662 41.024 C 237.589 40.079,242.628 39.743,245.277 40.448 M166.232 41.339 C 166.411 41.555,166.800 42.866,167.096 44.252 C 167.392 45.638,167.754 47.339,167.902 48.031 C 168.581 51.225,170.552 58.381,171.025 59.370 C 171.190 59.717,171.694 61.063,172.144 62.362 C 173.110 65.147,173.858 65.946,175.220 65.647 L 176.164 65.440 175.326 66.277 C 173.967 67.636,174.639 69.258,181.138 80.311 C 182.465 82.567,182.659 83.096,182.385 83.697 C 181.743 85.107,181.041 84.669,179.020 81.598 C 176.159 77.251,175.057 75.319,172.943 70.945 L 171.382 67.717 169.392 67.653 C 168.297 67.618,166.976 67.598,166.457 67.610 C 165.937 67.621,164.043 67.503,162.247 67.348 C 158.292 67.007,158.100 67.060,157.168 68.744 C 156.762 69.478,156.099 70.479,155.695 70.969 C 155.291 71.459,154.961 72.061,154.961 72.308 C 154.961 72.554,154.845 72.756,154.703 72.756 C 154.561 72.756,153.562 73.877,152.483 75.247 C 151.404 76.617,149.996 78.167,149.355 78.692 C 148.714 79.217,147.671 80.122,147.037 80.704 C 144.770 82.789,143.427 83.551,142.703 83.163 C 141.745 82.651,141.876 81.460,142.992 80.521 C 143.512 80.083,143.937 79.579,143.937 79.400 C 143.937 79.221,144.362 78.760,144.882 78.375 C 145.402 77.991,145.827 77.499,145.827 77.281 C 145.827 77.064,146.078 76.701,146.385 76.475 C 146.692 76.248,147.785 74.929,148.815 73.543 C 149.844 72.157,150.869 70.836,151.091 70.607 C 151.314 70.379,151.496 69.996,151.496 69.757 C 151.496 69.518,151.709 69.204,151.969 69.058 C 152.481 68.771,153.701 66.569,153.701 65.930 C 153.701 65.366,152.578 64.373,150.291 62.915 C 147.644 61.228,148.092 59.958,150.790 61.501 C 151.611 61.971,152.915 62.660,153.686 63.032 L 155.089 63.708 155.982 62.642 C 156.473 62.055,156.964 61.220,157.073 60.787 C 157.182 60.354,157.672 59.347,158.163 58.548 C 158.654 57.749,159.055 56.938,159.055 56.746 C 159.055 56.554,159.480 55.560,160.000 54.537 C 160.520 53.515,160.945 52.446,160.945 52.161 C 160.945 51.877,161.082 51.399,161.249 51.098 C 161.928 49.876,162.835 47.560,162.835 47.047 C 162.835 45.432,164.803 40.945,165.512 40.945 C 165.729 40.945,166.054 41.122,166.232 41.339 M208.473 42.352 C 217.261 44.278,218.983 49.923,213.071 57.431 C 211.324 59.649,207.981 62.677,207.280 62.677 C 207.087 62.677,206.929 62.800,206.929 62.949 C 206.929 63.099,206.367 63.611,205.679 64.088 C 203.247 65.773,203.950 67.455,209.438 73.079 C 211.436 75.127,214.032 77.805,215.206 79.029 C 216.904 80.800,217.632 81.328,218.760 81.613 C 220.679 82.096,221.179 83.002,220.058 83.967 L 219.245 84.667 216.966 83.829 C 214.170 82.802,213.621 82.276,204.588 71.969 C 200.733 67.569,200.562 67.442,198.954 67.758 C 198.230 67.900,197.108 68.096,196.461 68.195 C 195.759 68.301,195.154 68.616,194.963 68.972 C 194.618 69.616,193.704 77.543,193.696 79.955 C 193.690 81.686,193.369 82.308,192.561 82.154 C 191.752 82.000,191.651 80.142,192.127 74.186 C 192.580 68.512,192.609 68.563,188.793 68.217 C 185.084 67.881,183.434 66.842,182.528 64.275 C 181.019 59.998,183.769 57.206,189.877 56.814 C 193.861 56.559,193.765 56.678,194.065 51.592 C 194.406 45.819,193.193 44.507,189.606 46.772 C 188.920 47.205,188.179 47.560,187.959 47.561 C 187.739 47.562,187.134 47.853,186.614 48.207 C 184.193 49.855,183.315 50.156,182.494 49.618 C 181.508 48.972,181.505 47.945,182.489 47.571 C 182.905 47.412,183.341 47.129,183.457 46.941 C 183.752 46.464,187.401 44.660,190.449 43.485 C 195.267 41.627,202.959 41.143,208.473 42.352 M197.401 44.635 C 196.096 44.833,195.945 45.437,195.712 51.405 L 195.497 56.907 197.512 58.533 C 198.621 59.428,200.115 60.726,200.833 61.418 C 202.126 62.666,202.930 62.972,203.308 62.361 C 203.416 62.187,204.381 61.451,205.453 60.726 C 211.197 56.842,214.906 50.590,213.044 47.931 C 211.147 45.223,203.775 43.670,197.401 44.635 M207.634 49.303 C 209.845 50.004,210.077 50.540,208.946 52.332 C 207.939 53.927,203.579 58.268,202.984 58.268 C 202.559 58.268,199.728 56.244,199.280 55.620 C 198.960 55.174,199.347 49.787,199.754 49.014 C 200.157 48.249,204.857 48.422,207.634 49.303 M163.780 53.312 C 163.453 54.051,163.034 55.331,162.849 56.157 C 162.664 56.982,162.370 57.901,162.195 58.199 C 161.752 58.955,160.000 63.944,160.000 64.451 C 160.000 65.310,161.517 65.839,164.997 66.193 C 170.501 66.753,170.773 66.449,169.173 61.527 C 168.674 59.994,167.875 57.394,167.396 55.748 C 166.125 51.383,164.976 50.609,163.780 53.312 M187.244 59.844 C 185.235 60.865,184.748 61.976,185.542 63.721 C 186.271 65.321,191.439 66.500,192.482 65.304 C 193.200 64.482,193.528 60.787,192.954 60.002 C 192.286 59.088,188.913 58.995,187.244 59.844 M165.690 61.743 C 166.486 62.170,166.464 62.841,165.633 63.423 C 164.429 64.266,163.451 63.287,164.294 62.083 C 164.831 61.317,164.873 61.306,165.690 61.743 M191.118 62.547 C 191.258 63.529,190.359 64.165,189.548 63.659 C 189.197 63.440,189.004 63.411,189.117 63.595 C 189.244 63.799,189.134 63.857,188.837 63.743 C 188.569 63.640,188.428 63.429,188.524 63.274 C 188.620 63.119,188.550 62.992,188.368 62.992 C 188.186 62.992,188.284 62.703,188.586 62.349 C 189.326 61.481,190.984 61.611,191.118 62.547 M195.950 99.046 C 194.676 99.459,193.320 100.090,192.938 100.449 C 192.556 100.809,192.144 101.102,192.024 101.102 C 190.774 101.102,187.645 105.726,187.471 107.832 C 187.249 110.502,186.634 110.377,200.650 110.505 L 212.856 110.617 213.236 109.907 C 213.825 108.806,213.361 106.601,212.107 104.536 C 208.903 99.261,202.260 97.004,195.950 99.046 M203.307 103.025 C 206.505 103.900,208.731 105.870,207.694 106.907 C 206.964 107.636,193.991 107.647,193.263 106.918 C 192.717 106.373,193.160 104.882,193.866 104.882 C 194.075 104.882,194.627 104.582,195.094 104.215 C 196.783 102.886,200.716 102.317,203.307 103.025 M33.423 121.800 C 32.053 122.962,32.001 124.904,33.230 129.003 C 34.054 131.752,35.086 135.269,36.736 140.945 C 40.052 152.355,40.110 152.441,44.472 152.441 C 48.028 152.441,50.372 150.569,50.391 147.715 C 50.396 146.908,51.960 142.878,52.369 142.618 C 53.241 142.064,54.164 142.645,54.186 143.764 C 54.214 145.143,56.327 150.643,57.140 151.455 C 57.931 152.244,58.127 152.283,61.273 152.283 C 65.124 152.283,65.668 151.915,66.618 148.661 C 68.163 143.365,70.528 135.649,71.976 131.181 C 74.605 123.068,73.867 120.949,68.410 120.946 C 64.674 120.944,63.457 122.132,62.279 126.929 C 61.613 129.642,60.468 129.611,59.578 126.856 C 57.765 121.245,57.241 120.818,52.389 120.995 C 48.636 121.133,47.962 121.690,46.783 125.632 C 45.955 128.398,45.551 129.134,44.861 129.134 C 44.253 129.134,43.465 127.865,43.465 126.887 C 43.465 125.614,42.236 122.659,41.368 121.843 C 40.047 120.602,34.867 120.574,33.423 121.800 M157.145 122.000 C 155.927 122.844,155.154 124.666,155.482 125.920 C 155.818 127.204,154.911 127.760,152.134 127.974 C 148.129 128.283,142.992 131.990,142.992 134.571 C 142.992 134.829,142.756 135.590,142.468 136.261 C 139.178 143.908,146.129 153.658,154.331 152.903 C 155.630 152.783,157.685 152.711,158.898 152.743 C 166.020 152.930,165.679 153.721,165.638 137.099 C 165.621 130.033,165.511 123.910,165.394 123.493 C 164.790 121.332,159.493 120.373,157.145 122.000 M267.863 122.628 L 266.644 123.682 266.512 136.900 C 266.345 153.557,266.237 153.251,272.194 153.022 L 275.012 152.913 276.168 151.570 C 277.598 149.906,277.889 149.906,279.363 151.566 C 280.649 153.016,283.146 153.474,286.788 152.927 C 289.375 152.539,290.347 150.088,288.853 147.717 C 287.806 146.054,284.575 141.529,283.749 140.569 C 282.820 139.487,282.818 138.371,283.744 138.024 C 284.024 137.920,284.617 137.471,285.063 137.027 C 285.509 136.584,286.458 135.710,287.171 135.087 C 289.018 133.475,289.341 131.303,287.965 129.762 C 286.681 128.326,281.642 127.958,279.231 129.125 C 277.213 130.102,276.850 129.745,276.850 126.780 C 276.850 122.895,275.498 121.587,271.470 121.579 C 269.211 121.575,269.015 121.632,267.863 122.628 M297.032 122.705 C 296.018 123.558,295.553 128.469,296.364 129.752 C 296.785 130.417,305.427 130.406,305.848 129.740 C 306.833 128.185,305.955 123.402,304.499 122.381 C 303.212 121.480,298.231 121.696,297.032 122.705 M39.097 124.369 C 39.318 124.587,40.756 130.014,41.445 133.228 C 41.687 134.354,42.014 135.630,42.172 136.063 C 42.330 136.496,42.637 137.559,42.853 138.425 C 43.640 141.568,45.416 141.810,46.325 138.898 C 46.622 137.945,47.305 135.808,47.842 134.148 C 48.379 132.489,48.819 130.930,48.820 130.684 C 48.821 130.438,49.241 129.173,49.754 127.874 C 50.267 126.575,50.692 125.193,50.698 124.803 C 50.708 124.142,50.846 124.094,52.745 124.094 C 55.135 124.094,55.151 124.112,56.266 128.031 C 56.660 129.417,57.360 131.827,57.820 133.386 C 58.281 134.945,58.906 137.142,59.209 138.268 C 60.300 142.324,63.305 141.302,63.307 136.873 C 63.308 136.514,63.800 134.732,64.402 132.913 C 65.004 131.094,65.502 129.323,65.509 128.976 C 65.530 127.883,66.650 124.679,67.114 124.386 C 68.129 123.743,69.981 124.036,69.758 124.803 C 69.644 125.193,69.433 125.937,69.289 126.457 C 69.045 127.337,68.388 129.533,66.134 137.008 C 65.638 138.654,64.809 141.346,64.293 142.992 C 63.776 144.638,63.255 146.522,63.135 147.180 L 62.917 148.376 61.182 148.282 L 59.447 148.189 58.587 145.512 C 58.114 144.039,57.335 141.488,56.856 139.843 C 53.773 129.244,52.458 127.763,50.875 133.107 C 49.951 136.226,48.527 140.798,47.546 143.789 C 47.034 145.353,46.614 146.933,46.614 147.299 C 46.614 148.081,46.060 148.346,44.422 148.346 C 42.658 148.346,42.897 148.840,40.294 139.843 C 39.768 138.024,38.990 135.402,38.565 134.016 C 38.140 132.630,37.793 131.327,37.794 131.120 C 37.795 130.914,37.370 129.475,36.850 127.924 C 35.527 123.974,35.549 123.819,37.402 124.014 C 38.224 124.101,38.988 124.260,39.097 124.369 M162.130 136.457 L 162.047 148.504 160.685 148.602 C 159.936 148.656,159.130 148.539,158.892 148.342 C 158.570 148.075,157.881 148.082,156.160 148.370 C 149.693 149.454,145.512 146.080,145.512 139.776 C 145.512 133.349,150.217 129.684,156.191 131.458 C 158.729 132.212,159.055 131.784,159.055 127.699 L 159.055 124.409 160.634 124.409 L 162.212 124.409 162.130 136.457 M273.386 130.642 C 273.545 136.473,273.662 136.997,274.803 136.999 C 275.199 136.999,279.099 133.701,279.455 133.065 C 279.889 132.290,282.091 131.339,283.452 131.339 C 285.053 131.339,285.045 131.560,283.400 132.921 C 282.672 133.523,281.634 134.476,281.094 135.039 C 280.555 135.602,279.962 136.063,279.778 136.063 C 279.317 136.063,278.425 137.483,278.425 138.215 C 278.425 138.545,278.969 139.507,279.633 140.353 C 280.298 141.198,281.664 143.094,282.670 144.567 C 283.676 146.039,284.860 147.634,285.300 148.110 L 286.102 148.976 284.171 148.976 L 282.241 148.976 280.569 146.820 C 279.650 145.634,278.402 143.868,277.795 142.896 C 276.374 140.619,275.249 140.164,273.937 141.337 C 273.476 141.749,273.386 142.390,273.386 145.240 C 273.386 149.015,273.275 149.184,270.983 148.922 L 270.079 148.819 269.979 142.835 C 269.924 139.543,269.975 134.115,270.092 130.772 L 270.306 124.693 271.767 124.787 L 273.228 124.882 273.386 130.642 M302.677 125.801 C 302.677 127.596,302.440 127.874,300.911 127.874 L 299.528 127.874 299.528 126.509 C 299.528 124.820,299.623 124.724,301.312 124.724 C 302.656 124.724,302.677 124.741,302.677 125.801 M354.173 125.002 C 351.971 125.575,347.717 128.164,347.717 128.931 C 347.717 129.079,347.368 129.615,346.941 130.122 C 344.519 133.000,345.120 139.930,348.052 142.929 C 350.744 145.683,351.855 146.162,356.063 146.382 C 358.275 146.498,359.019 146.658,359.449 147.110 C 360.032 147.724,360.220 148.835,359.685 148.504 C 359.512 148.397,359.370 148.437,359.370 148.593 C 359.370 150.104,355.600 150.151,354.170 148.658 C 351.757 146.139,346.970 145.695,346.128 147.911 C 344.002 153.502,352.360 158.391,360.903 156.552 C 367.426 155.148,369.116 151.049,369.128 136.604 C 369.136 125.623,368.924 125.233,362.887 125.141 C 360.866 125.110,358.291 125.011,357.165 124.921 C 356.039 124.831,354.693 124.867,354.173 125.002 M89.077 127.871 C 88.094 127.998,86.747 128.387,86.085 128.736 C 85.423 129.085,84.280 129.687,83.543 130.073 C 82.807 130.459,82.205 130.937,82.205 131.136 C 82.205 131.335,81.815 131.867,81.339 132.318 C 79.441 134.114,78.495 141.217,79.665 144.882 C 82.853 154.873,98.298 155.818,102.835 146.299 C 105.654 140.386,103.236 131.539,98.168 129.218 C 96.251 128.340,95.798 128.176,94.488 127.887 C 92.904 127.538,91.703 127.534,89.077 127.871 M120.472 127.868 C 118.664 128.120,117.865 128.405,117.087 129.073 C 116.783 129.333,116.535 129.445,116.535 129.321 C 116.535 129.060,113.598 131.057,113.434 131.429 C 113.375 131.565,112.970 132.100,112.534 132.617 C 110.571 134.951,109.936 142.498,111.422 145.827 C 116.764 157.786,134.925 154.357,135.385 141.302 C 135.552 136.568,134.700 134.100,131.951 131.351 C 128.831 128.231,125.377 127.183,120.472 127.868 M221.102 128.194 C 215.066 129.022,211.314 133.353,211.073 139.774 C 210.702 149.656,220.070 156.524,228.412 152.485 C 229.178 152.115,229.947 151.811,230.119 151.811 C 230.292 151.811,230.841 151.386,231.339 150.866 C 231.836 150.346,232.430 149.921,232.657 149.921 C 232.885 149.921,233.071 149.733,233.071 149.504 C 233.071 149.274,233.416 148.762,233.839 148.365 C 236.452 145.910,236.633 137.574,234.156 133.701 C 231.292 129.220,226.957 127.391,221.102 128.194 M358.898 128.387 C 359.937 128.657,361.000 128.862,361.260 128.842 C 361.520 128.822,362.553 128.724,363.557 128.625 L 365.382 128.444 365.289 137.529 L 365.197 146.614 364.356 148.346 C 363.769 149.555,363.013 150.460,361.856 151.339 L 360.198 152.598 356.713 152.598 C 353.580 152.598,353.086 152.519,351.821 151.810 C 349.702 150.624,348.143 147.241,349.870 147.577 C 351.858 147.963,352.151 148.112,352.586 148.952 C 354.366 152.395,361.890 150.760,361.890 146.931 C 361.890 145.283,361.332 144.737,359.924 145.006 C 355.290 145.891,353.304 145.472,350.996 143.124 C 346.391 138.439,348.744 129.196,354.803 128.167 C 356.686 127.847,356.852 127.856,358.898 128.387 M174.331 128.416 C 171.992 128.985,171.752 131.516,173.544 136.693 C 175.347 141.899,176.066 144.040,177.169 147.489 C 178.764 152.476,179.089 152.756,183.272 152.756 C 186.268 152.756,186.360 152.734,187.244 151.811 C 188.364 150.642,189.155 150.618,190.302 151.716 C 191.189 152.567,192.940 152.976,195.983 153.044 C 197.675 153.082,199.400 151.474,199.888 149.403 C 200.087 148.562,200.618 147.068,201.069 146.083 C 201.521 145.098,201.890 144.074,201.890 143.808 C 201.890 143.541,202.315 142.253,202.835 140.945 C 203.354 139.637,203.780 138.348,203.780 138.082 C 203.780 137.815,204.155 136.792,204.614 135.807 C 205.691 133.494,205.942 131.014,205.211 129.899 C 203.677 127.557,197.472 127.582,196.213 129.936 C 195.632 131.021,194.712 130.901,193.339 129.560 C 191.280 127.550,186.053 127.687,184.496 129.792 C 183.636 130.956,182.562 130.991,181.833 129.878 C 180.885 128.432,177.207 127.715,174.331 128.416 M245.400 128.687 C 243.605 129.442,243.465 130.305,243.465 140.609 C 243.465 152.797,243.582 153.071,248.791 153.071 C 253.181 153.071,253.387 152.715,253.721 144.567 C 253.961 138.696,254.005 138.583,256.059 138.583 C 260.854 138.583,262.746 131.278,258.517 129.093 C 256.921 128.268,247.118 127.965,245.400 128.687 M324.409 128.635 C 323.535 128.872,322.570 128.924,321.890 128.769 C 318.823 128.073,315.957 128.771,315.104 130.421 C 314.306 131.964,314.443 150.057,315.263 151.402 C 316.707 153.771,321.807 154.243,323.854 152.197 L 324.882 151.171 325.039 144.850 C 325.183 139.099,325.251 138.491,325.798 138.092 C 327.009 137.208,327.223 138.210,327.234 144.808 L 327.244 150.875 328.322 152.052 C 330.217 154.120,335.179 153.919,336.820 151.709 C 337.774 150.423,337.636 136.609,336.642 133.952 C 335.026 129.632,329.535 127.245,324.409 128.635 M354.803 130.584 C 350.769 132.788,350.016 138.115,353.236 141.670 L 354.576 143.150 357.070 143.142 C 359.531 143.134,359.580 143.118,360.754 141.944 C 365.401 137.297,360.309 127.576,354.803 130.584 M96.170 131.798 C 97.731 132.713,98.505 133.518,99.515 135.276 C 100.974 137.814,100.249 145.512,98.552 145.512 C 98.395 145.512,98.268 145.694,98.268 145.918 C 98.268 146.439,95.246 148.275,93.674 148.709 C 86.891 150.582,80.139 142.619,83.244 136.408 C 83.538 135.819,83.780 135.200,83.780 135.033 C 83.780 134.548,86.073 132.394,86.850 132.149 C 87.240 132.027,87.559 131.812,87.559 131.673 C 87.559 131.391,89.729 130.767,91.181 130.632 C 92.730 130.488,94.735 130.957,96.170 131.798 M127.233 131.703 C 129.819 132.815,131.255 134.877,131.640 138.033 C 131.907 140.226,131.597 143.658,131.072 144.304 C 129.241 146.558,128.487 147.246,127.110 147.918 C 120.893 150.948,114.043 146.700,114.021 139.800 C 113.999 133.109,120.803 128.940,127.233 131.703 M178.823 131.417 C 178.997 131.634,179.245 132.307,179.373 132.913 C 179.501 133.520,180.013 135.219,180.511 136.690 C 181.010 138.162,181.417 139.599,181.417 139.884 C 181.417 142.125,184.226 142.272,184.850 140.064 C 185.056 139.336,185.647 137.394,186.164 135.748 C 186.681 134.102,187.100 132.536,187.095 132.268 C 187.082 131.545,187.736 131.023,188.646 131.028 C 190.398 131.037,190.688 131.294,191.234 133.323 C 191.523 134.397,192.064 136.409,192.437 137.795 C 192.810 139.181,193.321 140.634,193.573 141.024 C 194.339 142.211,196.220 141.789,196.220 140.430 C 196.220 140.129,196.633 138.775,197.137 137.422 C 197.640 136.068,198.215 134.350,198.414 133.604 C 199.011 131.367,201.890 129.742,201.890 131.642 C 201.890 132.356,200.686 135.761,200.276 136.205 C 200.124 136.369,200.000 136.802,200.000 137.167 C 200.000 137.532,199.504 139.061,198.898 140.564 C 198.291 142.068,197.795 143.522,197.795 143.795 C 197.795 144.069,197.460 145.027,197.051 145.926 C 196.642 146.824,196.207 147.878,196.085 148.268 C 195.907 148.835,195.632 148.975,194.703 148.972 C 192.783 148.964,192.777 148.954,190.842 141.927 C 189.760 138.001,187.495 137.647,186.909 141.312 C 186.281 145.241,184.683 148.814,183.508 148.916 C 182.040 149.043,181.212 148.567,181.024 147.489 C 180.940 147.008,180.551 145.693,180.160 144.567 C 177.124 135.837,175.768 131.561,175.945 131.275 C 176.194 130.872,178.475 130.985,178.823 131.417 M227.567 131.804 C 231.511 133.410,233.508 139.003,231.713 143.414 C 227.787 153.064,214.064 149.920,214.538 139.479 C 214.820 133.267,221.499 129.333,227.567 131.804 M255.984 131.498 C 258.025 131.908,257.213 134.225,255.126 133.945 C 253.811 133.769,251.654 134.345,251.654 134.872 C 251.654 135.056,251.448 135.364,251.197 135.556 C 250.451 136.126,249.700 141.449,249.814 145.354 L 249.914 148.819 248.500 148.819 L 247.087 148.819 247.003 140.477 C 246.901 130.460,246.636 131.386,249.511 131.721 C 251.343 131.934,252.073 131.892,252.928 131.523 C 253.526 131.265,254.228 131.107,254.488 131.173 C 254.748 131.238,255.421 131.384,255.984 131.498 M330.178 131.795 C 333.415 132.949,333.843 134.208,333.851 142.598 L 333.858 149.291 332.677 149.287 C 330.868 149.279,330.868 149.277,330.848 143.307 C 330.820 135.155,330.307 133.969,326.653 133.618 C 322.562 133.225,321.585 134.947,321.349 142.969 L 321.162 149.291 320.134 149.291 C 317.997 149.291,318.110 149.795,318.110 140.281 L 318.110 131.654 319.685 131.654 C 320.551 131.654,321.260 131.793,321.260 131.963 C 321.260 132.455,322.796 132.708,323.291 132.297 C 324.456 131.330,328.124 131.062,330.178 131.795 M296.822 132.590 C 295.763 133.018,295.235 149.276,296.219 151.178 C 297.747 154.134,304.675 153.952,305.857 150.924 C 306.272 149.861,306.219 134.489,305.796 133.275 L 305.450 132.283 301.465 132.303 C 299.274 132.314,297.184 132.443,296.822 132.590 M90.551 132.919 C 86.831 133.722,84.850 136.955,85.484 141.186 C 86.067 145.070,90.554 147.834,93.543 146.150 C 94.150 145.808,94.885 145.440,95.177 145.331 C 96.991 144.657,97.907 138.425,96.535 136.096 C 95.202 133.834,92.633 132.470,90.551 132.919 M120.315 133.462 C 114.706 137.134,115.883 145.368,122.188 146.573 C 128.816 147.840,131.465 136.680,125.288 133.513 C 123.852 132.776,121.400 132.751,120.315 133.462 M152.312 133.394 C 147.977 134.495,146.851 141.252,150.373 145.034 L 151.698 146.457 153.971 146.457 C 157.778 146.457,159.344 144.451,159.363 139.555 C 159.379 135.227,156.163 132.416,152.312 133.394 M221.024 133.594 C 220.547 133.768,220.157 134.031,220.157 134.178 C 220.157 134.325,219.863 134.539,219.504 134.653 C 216.871 135.489,216.873 142.919,219.507 145.298 C 221.285 146.905,224.980 147.572,225.695 146.415 C 225.788 146.265,226.124 146.142,226.442 146.142 C 227.551 146.142,229.104 143.151,229.240 140.755 C 229.544 135.377,225.586 131.928,221.024 133.594 M302.604 141.654 L 302.520 149.134 301.260 149.216 C 299.062 149.359,299.117 149.584,299.376 141.456 L 299.608 134.173 301.148 134.173 L 302.689 134.173 302.604 141.654 M358.110 134.803 C 359.119 135.812,359.023 139.328,357.968 140.019 C 356.993 140.658,355.967 140.359,355.573 139.323 C 354.455 136.383,356.338 133.030,358.110 134.803 M93.140 137.926 C 94.485 139.675,93.395 143.602,91.560 143.617 C 89.480 143.635,88.464 138.700,90.315 137.570 C 91.286 136.977,92.531 137.134,93.140 137.926 M124.178 137.545 C 125.685 138.392,125.192 143.099,123.554 143.510 C 122.508 143.772,121.311 143.168,120.939 142.188 C 119.773 139.123,121.805 136.211,124.178 137.545 M155.185 138.268 C 156.357 140.596,155.331 143.942,153.580 143.502 C 152.181 143.151,151.644 139.135,152.808 137.732 C 153.368 137.057,154.730 137.364,155.185 138.268 M224.270 137.638 C 225.889 137.638,226.342 141.296,224.932 142.985 C 223.849 144.283,222.099 144.112,221.697 142.669 C 221.358 141.450,221.382 138.583,221.732 138.583 C 221.906 138.583,222.047 138.382,222.047 138.136 C 222.047 137.623,222.642 137.312,223.254 137.505 C 223.485 137.578,223.942 137.638,224.270 137.638 " stroke="none" fill="#797D7F" fill-rule="evenodd"></path></g></svg>